<?xml version="1.0" encoding="utf-8"?>
<!-- Svg Vector Icons : http://www.onlinewebfonts.com/icon -->
<!DOCTYPE svg PUBLIC "-//W3C//DTD SVG 1.1//EN" "http://www.w3.org/Graphics/SVG/1.1/DTD/svg11.dtd">
<svg version="1.1" xmlns="http://www.w3.org/2000/svg" xmlns:xlink="http://www.w3.org/1999/xlink" x="0px" y="0px" viewBox="0 0 1000 1000" enable-background="new 0 0 1000 1000" xml:space="preserve">
<metadata> Svg Vector Icons : http://www.onlinewebfonts.com/icon </metadata>
<g><path d="M780,266.8c-22.9,9.2-45.8,22.9-78,27.6c-68.9-87.2-243.2-18.3-211.1,110.1c-119.3-9.1-192.7-64.2-252.3-128.4c-32.1,55-4.6,142.2,36.7,165.1c-18.4,0-36.7-4.5-50.4-13.8c4.5,73.5,41.3,105.6,96.3,123.9c-13.8,0-32.2,4.6-50.5,0c18.3,50.5,55,82.5,114.7,87.2c-41.3,36.7-119.3,59.7-179,50.5c55.1,32.1,114.7,59.6,197.3,55c201.9-9.1,335-153.1,339.5-364.2c0,0,39.8-40.7,54-62.6c-20,7.6-44.9,13.8-67.7,18.4C752.5,317.3,770.9,299.1,780,266.8z"/><path d="M500,10C230.5,10,10,230.5,10,500c0,269.4,220.5,490,490,490c269.5,0,490-220.5,490-490C990,230.5,769.5,10,500,10z M500,949.2C252.9,949.2,50.8,747,50.8,500C50.8,253,252.9,50.8,500,50.8S949.2,253,949.2,500C949.2,747,747.1,949.2,500,949.2z"/></g>
</svg>